# xmcd
#
# Track frame offsets:
#	150
#	14960
#	24839
#	35157
#	51039
#	63077
#	78349
#	91122
#	103501
#	119873
#	129331
#	146659
#	158037
#	171719
#
# Disc length: 2538 seconds
#
# Revision: 2
# Processed by: cddbd v1.4PL0 Copyright (c) Steve Scherf et al.
# Submitted via: dBpowerAMP V4.0
#
DISCID=be09e80e
DTITLE=Lagwagon - Blaze
DYEAR=1900
DGENRE=Punk
TTITLE0=Burn
TTITLE1=E Dagger
TTITLE2=Dancing The Collapse
TTITLE3=I Must Be Hateful
TTITLE4=Falling apart
TTITLE5=Max Says
TTITLE6=Billy club
TTITLE7=Dividers
TTITLE8=Never stops
TTITLE9=Dinner and a movie
TTITLE10=Lullaby
TTITLE11=Billionaire
TTITLE12=Heartbreak
TTITLE13=Baggage
EXTD=\n\n
EXTT0=
EXTT1=
EXTT2=
EXTT3=
EXTT4=
EXTT5=
EXTT6=
EXTT7=
EXTT8=
EXTT9=
EXTT10=
EXTT11=
EXTT12=
EXTT13=
PLAYORDER=
